<svg width="25" height="20" viewBox="0 0 25 20" fill="none" xmlns="http://www.w3.org/2000/svg">
<path d="M8.37598 0.337891C8.65598 0.337891 8.90597 0.396224 9.12597 0.512891C9.36597 0.612891 9.54597 0.76289 9.66597 0.96289C9.80597 1.14622 9.87598 1.35456 9.87598 1.58789C9.87598 1.82122 9.80597 2.03789 9.66597 2.23789C9.54597 2.42122 9.36597 2.57122 9.12597 2.68789C8.90597 2.78789 8.65598 2.83789 8.37598 2.83789H0.875977V0.337891H8.37598ZM8.37598 16.8379C8.65598 16.8379 8.90597 16.8962 9.12597 17.0129C9.36597 17.1129 9.54597 17.2629 9.66597 17.4629C9.80597 17.6462 9.87598 17.8546 9.87598 18.0879C9.87598 18.3212 9.80597 18.5379 9.66597 18.7379C9.54597 18.9212 9.36597 19.0712 9.12597 19.1879C8.90597 19.2879 8.65598 19.3379 8.37598 19.3379H0.875977V16.8379H8.37598ZM13.376 3.08789C13.656 3.08789 13.906 3.14622 14.126 3.26289C14.366 3.36289 14.546 3.51289 14.666 3.71289C14.806 3.89622 14.876 4.10456 14.876 4.33789C14.876 4.57122 14.806 4.78789 14.666 4.98789C14.546 5.17122 14.366 5.32122 14.126 5.43789C13.906 5.53789 13.656 5.58789 13.376 5.58789H10.376C10.096 5.58789 9.83598 5.53789 9.59598 5.43789C9.37598 5.32122 9.19598 5.17122 9.05598 4.98789C8.93598 4.78789 8.87597 4.57122 8.87597 4.33789C8.87597 4.10456 8.93598 3.89622 9.05598 3.71289C9.19598 3.51289 9.37598 3.36289 9.59598 3.26289C9.83598 3.14622 10.096 3.08789 10.376 3.08789H13.376ZM18.376 5.83789C18.656 5.83789 18.906 5.89622 19.126 6.01289C19.366 6.11289 19.546 6.26289 19.666 6.46289C19.806 6.64622 19.876 6.85456 19.876 7.08789C19.876 7.32122 19.806 7.53789 19.666 7.73789C19.546 7.92122 19.366 8.07122 19.126 8.18789C18.906 8.28789 18.656 8.33789 18.376 8.33789H15.376C15.096 8.33789 14.836 8.28789 14.596 8.18789C14.376 8.07122 14.196 7.92122 14.056 7.73789C13.936 7.53789 13.876 7.32122 13.876 7.08789C13.876 6.85456 13.936 6.64622 14.056 6.46289C14.196 6.26289 14.376 6.11289 14.596 6.01289C14.836 5.89622 15.096 5.83789 15.376 5.83789H18.376ZM18.376 11.3379C18.656 11.3379 18.906 11.3962 19.126 11.5129C19.366 11.6129 19.546 11.7629 19.666 11.9629C19.806 12.1462 19.876 12.3546 19.876 12.5879C19.876 12.8212 19.806 13.0379 19.666 13.2379C19.546 13.4212 19.366 13.5712 19.126 13.6879C18.906 13.7879 18.656 13.8379 18.376 13.8379H15.376C15.096 13.8379 14.836 13.7879 14.596 13.6879C14.376 13.5712 14.196 13.4212 14.056 13.2379C13.936 13.0379 13.876 12.8212 13.876 12.5879C13.876 12.3546 13.936 12.1462 14.056 11.9629C14.196 11.7629 14.376 11.6129 14.596 11.5129C14.836 11.3962 15.096 11.3379 15.376 11.3379H18.376ZM13.376 14.0879C13.656 14.0879 13.906 14.1462 14.126 14.2629C14.366 14.3629 14.546 14.5129 14.666 14.7129C14.806 14.8962 14.876 15.1046 14.876 15.3379C14.876 15.5712 14.806 15.7879 14.666 15.9879C14.546 16.1712 14.366 16.3212 14.126 16.4379C13.906 16.5379 13.656 16.5879 13.376 16.5879H10.376C10.096 16.5879 9.83598 16.5379 9.59598 16.4379C9.37598 16.3212 9.19598 16.1712 9.05598 15.9879C8.93598 15.7879 8.87597 15.5712 8.87597 15.3379C8.87597 15.1046 8.93598 14.8962 9.05598 14.7129C9.19598 14.5129 9.37598 14.3629 9.59598 14.2629C9.83598 14.1462 10.096 14.0879 10.376 14.0879H13.376ZM24.876 9.83789L20.376 11.0879C20.096 11.0879 19.836 11.0379 19.596 10.9379C19.376 10.8212 19.196 10.6712 19.056 10.4879C18.936 10.2879 18.876 10.0712 18.876 9.83789C18.876 9.60456 18.936 9.39622 19.056 9.21289C19.196 9.01289 19.376 8.86289 19.596 8.76289C19.836 8.64622 20.096 8.58789 20.376 8.58789L24.876 9.83789Z" fill="black"/>
<path d="M4.10228 8.257C3.87908 8.11496 3.62544 8.04395 3.34136 8.04395H3.31092C3.02684 8.04395 2.76306 8.11496 2.51956 8.257C2.29635 8.37875 2.11373 8.56138 1.97169 8.80487C1.84994 9.02808 1.78906 9.28172 1.78906 9.5658C1.78906 9.84988 1.84994 10.1137 1.97169 10.3572C2.11373 10.5804 2.29635 10.763 2.51956 10.905C2.76306 11.0268 3.02684 11.0877 3.31092 11.0877H3.34136C3.62544 11.0877 3.87908 11.0268 4.10228 10.905C4.34578 10.763 4.5284 10.5804 4.65015 10.3572C4.79219 10.1137 4.86322 9.84988 4.86322 9.5658C4.86322 9.28172 4.79219 9.02808 4.65015 8.80487C4.5284 8.56138 4.34578 8.37875 4.10228 8.257Z" fill="black"/>
</svg>
