<svg width="25" height="20" viewBox="0 0 25 20" fill="none" xmlns="http://www.w3.org/2000/svg">
<path d="M8.37573 0.337891C8.65573 0.337891 8.90572 0.396224 9.12573 0.512891C9.36573 0.612891 9.54573 0.76289 9.66573 0.96289C9.80573 1.14622 9.87574 1.35456 9.87574 1.58789C9.87574 1.82122 9.80573 2.03789 9.66573 2.23789C9.54573 2.42122 9.36573 2.57122 9.12573 2.68789C8.90572 2.78789 8.65573 2.83789 8.37573 2.83789H0.875732V0.337891H8.37573ZM8.37573 16.8379C8.65573 16.8379 8.90572 16.8962 9.12573 17.0129C9.36573 17.1129 9.54573 17.2629 9.66573 17.4629C9.80573 17.6462 9.87574 17.8546 9.87574 18.0879C9.87574 18.3212 9.80573 18.5379 9.66573 18.7379C9.54573 18.9212 9.36573 19.0712 9.12573 19.1879C8.90572 19.2879 8.65573 19.3379 8.37573 19.3379H0.875732V16.8379H8.37573ZM13.3757 3.08789C13.6557 3.08789 13.9057 3.14622 14.1257 3.26289C14.3657 3.36289 14.5457 3.51289 14.6657 3.71289C14.8057 3.89622 14.8757 4.10456 14.8757 4.33789C14.8757 4.57122 14.8057 4.78789 14.6657 4.98789C14.5457 5.17122 14.3657 5.32122 14.1257 5.43789C13.9057 5.53789 13.6557 5.58789 13.3757 5.58789H10.3757C10.0957 5.58789 9.83573 5.53789 9.59573 5.43789C9.37573 5.32122 9.19573 5.17122 9.05573 4.98789C8.93573 4.78789 8.87573 4.57122 8.87573 4.33789C8.87573 4.10456 8.93573 3.89622 9.05573 3.71289C9.19573 3.51289 9.37573 3.36289 9.59573 3.26289C9.83573 3.14622 10.0957 3.08789 10.3757 3.08789H13.3757ZM18.3757 5.83789C18.6557 5.83789 18.9057 5.89622 19.1257 6.01289C19.3657 6.11289 19.5457 6.26289 19.6657 6.46289C19.8057 6.64622 19.8757 6.85456 19.8757 7.08789C19.8757 7.32122 19.8057 7.53789 19.6657 7.73789C19.5457 7.92122 19.3657 8.07122 19.1257 8.18789C18.9057 8.28789 18.6557 8.33789 18.3757 8.33789H15.3757C15.0957 8.33789 14.8357 8.28789 14.5957 8.18789C14.3757 8.07122 14.1957 7.92122 14.0557 7.73789C13.9357 7.53789 13.8757 7.32122 13.8757 7.08789C13.8757 6.85456 13.9357 6.64622 14.0557 6.46289C14.1957 6.26289 14.3757 6.11289 14.5957 6.01289C14.8357 5.89622 15.0957 5.83789 15.3757 5.83789H18.3757ZM18.3757 11.3379C18.6557 11.3379 18.9057 11.3962 19.1257 11.5129C19.3657 11.6129 19.5457 11.7629 19.6657 11.9629C19.8057 12.1462 19.8757 12.3546 19.8757 12.5879C19.8757 12.8212 19.8057 13.0379 19.6657 13.2379C19.5457 13.4212 19.3657 13.5712 19.1257 13.6879C18.9057 13.7879 18.6557 13.8379 18.3757 13.8379H15.3757C15.0957 13.8379 14.8357 13.7879 14.5957 13.6879C14.3757 13.5712 14.1957 13.4212 14.0557 13.2379C13.9357 13.0379 13.8757 12.8212 13.8757 12.5879C13.8757 12.3546 13.9357 12.1462 14.0557 11.9629C14.1957 11.7629 14.3757 11.6129 14.5957 11.5129C14.8357 11.3962 15.0957 11.3379 15.3757 11.3379H18.3757ZM13.3757 14.0879C13.6557 14.0879 13.9057 14.1462 14.1257 14.2629C14.3657 14.3629 14.5457 14.5129 14.6657 14.7129C14.8057 14.8962 14.8757 15.1046 14.8757 15.3379C14.8757 15.5712 14.8057 15.7879 14.6657 15.9879C14.5457 16.1712 14.3657 16.3212 14.1257 16.4379C13.9057 16.5379 13.6557 16.5879 13.3757 16.5879H10.3757C10.0957 16.5879 9.83573 16.5379 9.59573 16.4379C9.37573 16.3212 9.19573 16.1712 9.05573 15.9879C8.93573 15.7879 8.87573 15.5712 8.87573 15.3379C8.87573 15.1046 8.93573 14.8962 9.05573 14.7129C9.19573 14.5129 9.37573 14.3629 9.59573 14.2629C9.83573 14.1462 10.0957 14.0879 10.3757 14.0879H13.3757ZM24.8757 9.83789L20.3757 11.0879C20.0957 11.0879 19.8357 11.0379 19.5957 10.9379C19.3757 10.8212 19.1957 10.6712 19.0557 10.4879C18.9357 10.2879 18.8757 10.0712 18.8757 9.83789C18.8757 9.60456 18.9357 9.39622 19.0557 9.21289C19.1957 9.01289 19.3757 8.86289 19.5957 8.76289C19.8357 8.64622 20.0957 8.58789 20.3757 8.58789L24.8757 9.83789Z" fill="white"/>
<path d="M4.10253 8.257C3.87932 8.11496 3.62568 8.04395 3.34161 8.04395H3.31116C3.02709 8.04395 2.7633 8.11496 2.5198 8.257C2.2966 8.37875 2.11398 8.56138 1.97194 8.80487C1.85019 9.02808 1.78931 9.28172 1.78931 9.5658C1.78931 9.84988 1.85019 10.1137 1.97194 10.3572C2.11398 10.5804 2.2966 10.763 2.5198 10.905C2.7633 11.0268 3.02709 11.0877 3.31116 11.0877H3.34161C3.62568 11.0877 3.87932 11.0268 4.10253 10.905C4.34602 10.763 4.52865 10.5804 4.65039 10.3572C4.79243 10.1137 4.86346 9.84988 4.86346 9.5658C4.86346 9.28172 4.79243 9.02808 4.65039 8.80487C4.52865 8.56138 4.34602 8.37875 4.10253 8.257Z" fill="white"/>
</svg>
