<svg width="24" height="25" viewBox="0 0 24 25" fill="none" xmlns="http://www.w3.org/2000/svg">
<path d="M21.4403 11.5497L12.2503 20.7397C11.1244 21.8655 9.59747 22.498 8.00529 22.498C6.41311 22.498 4.88613 21.8655 3.76029 20.7397C2.63445 19.6138 2.00195 18.0869 2.00195 16.4947C2.00195 14.9025 2.63445 13.3755 3.76029 12.2497L12.3303 3.67967C13.0809 2.92778 14.0994 2.50485 15.1618 2.50391C16.2241 2.50297 17.2434 2.92411 17.9953 3.67467C18.7472 4.42523 19.1701 5.44374 19.171 6.50613C19.172 7.56853 18.7509 8.58778 18.0003 9.33967L9.41029 17.9097C9.03501 18.2849 8.52602 18.4958 7.99529 18.4958C7.46456 18.4958 6.95557 18.2849 6.58029 17.9097C6.20501 17.5344 5.99418 17.0254 5.99418 16.4947C5.99418 15.9639 6.20501 15.4549 6.58029 15.0797L15.0703 6.59967" stroke="white" stroke-width="2" stroke-linecap="round" stroke-linejoin="round"/>
</svg>
