<svg width="139" height="8" viewBox="0 0 139 8" fill="none" xmlns="http://www.w3.org/2000/svg">
<path fill-rule="evenodd" clip-rule="evenodd" d="M0 1C0 0.447715 0.447715 0 1 0H59H64H75H80H138C138.552 0 139 0.447715 139 1C139 1.55228 138.552 2 138 2H80L77.0739 2C77.0736 2 77.0733 2 77.0731 2C76.2326 2.00024 75.4308 2.353 74.8628 2.97246L72.0053 6.08865C70.8164 7.38527 68.772 7.38527 67.5831 6.08865L64.7256 2.97247C64.1574 2.3528 63.3553 2 62.5145 2L59 2L1 2C0.447716 2 0 1.55228 0 1Z" fill="url(#paint0_radial_219_5748)"/>
<path fill-rule="evenodd" clip-rule="evenodd" d="M0 1C0 0.447715 0.447715 0 1 0H59H64H75H80H138C138.552 0 139 0.447715 139 1C139 1.55228 138.552 2 138 2H80L77.0739 2C77.0736 2 77.0733 2 77.0731 2C76.2326 2.00024 75.4308 2.353 74.8628 2.97246L72.0053 6.08865C70.8164 7.38527 68.772 7.38527 67.5831 6.08865L64.7256 2.97247C64.1574 2.3528 63.3553 2 62.5145 2L59 2L1 2C0.447716 2 0 1.55228 0 1Z" fill="#1B283C"/>
<path fill-rule="evenodd" clip-rule="evenodd" d="M0 1C0 0.447715 0.447715 0 1 0H59H64H75H80H138C138.552 0 139 0.447715 139 1C139 1.55228 138.552 2 138 2H80L77.0739 2C77.0736 2 77.0733 2 77.0731 2C76.2326 2.00024 75.4308 2.353 74.8628 2.97246L72.0053 6.08865C70.8164 7.38527 68.772 7.38527 67.5831 6.08865L64.7256 2.97247C64.1574 2.3528 63.3553 2 62.5145 2L59 2L1 2C0.447716 2 0 1.55228 0 1Z" fill="url(#paint1_radial_219_5748)"/>
<defs>
<radialGradient id="paint0_radial_219_5748" cx="0" cy="0" r="1" gradientUnits="userSpaceOnUse" gradientTransform="translate(70) rotate(90) scale(10.5 66.2982)">
<stop stop-color="#FF4801"/>
<stop offset="0.692336" stop-color="#FFD706"/>
<stop offset="1" stop-color="#FFD706" stop-opacity="0"/>
</radialGradient>
<radialGradient id="paint1_radial_219_5748" cx="0" cy="0" r="1" gradientUnits="userSpaceOnUse" gradientTransform="translate(156.492 3.53056) rotate(-180) scale(133.403 7.41367)">
<stop stop-color="#8FFFEB"/>
<stop offset="0.31162" stop-color="#247AFC"/>
<stop offset="1" stop-color="#247AFC" stop-opacity="0"/>
</radialGradient>
</defs>
</svg>
