<svg width="24" height="24" viewBox="0 0 24 24" fill="none" xmlns="http://www.w3.org/2000/svg">
<g filter="url(#filter0_b_57_218)">
<path d="M2.66284 1.90039H6.38684C7.95484 1.90039 9.21484 3.16039 9.21484 4.70039V8.34039H6.21884V4.70039H2.66284V1.90039ZM9.21484 8.34039H18.2028C19.8548 8.34039 21.1988 9.68439 21.1988 11.3364V18.5044C21.1988 20.1564 19.8548 21.5004 18.2028 21.5004H9.21484C7.56284 21.5004 6.21884 20.1564 6.21884 18.5044V14.1084C6.21884 12.4564 7.56284 11.1124 9.21484 11.1124V8.34039ZM9.21484 18.7004H18.2028V11.1404H9.21484V18.7004Z" fill="white"/>
</g>
<path d="M14.4851 13.6115C14.2619 13.4695 14.0083 13.3984 13.7242 13.3984H13.6937C13.4097 13.3984 13.1459 13.4695 12.9024 13.6115C12.6792 13.7332 12.4965 13.9159 12.3545 14.1594C12.2328 14.3826 12.1719 14.6362 12.1719 14.9203C12.1719 15.2044 12.2328 15.4682 12.3545 15.7117C12.4965 15.9349 12.6792 16.1175 12.9024 16.2595C13.1459 16.3813 13.4097 16.4421 13.6937 16.4421H13.7242C14.0083 16.4421 14.2619 16.3813 14.4851 16.2595C14.7286 16.1175 14.9112 15.9349 15.033 15.7117C15.175 15.4682 15.246 15.2044 15.246 14.9203C15.246 14.6362 15.175 14.3826 15.033 14.1594C14.9112 13.9159 14.7286 13.7332 14.4851 13.6115Z" fill="white"/>
<defs>
<filter id="filter0_b_57_218" x="-21.3372" y="-22.0996" width="66.5359" height="67.5996" filterUnits="userSpaceOnUse" color-interpolation-filters="sRGB">
<feFlood flood-opacity="0" result="BackgroundImageFix"/>
<feGaussianBlur in="BackgroundImageFix" stdDeviation="12"/>
<feComposite in2="SourceAlpha" operator="in" result="effect1_backgroundBlur_57_218"/>
<feBlend mode="normal" in="SourceGraphic" in2="effect1_backgroundBlur_57_218" result="shape"/>
</filter>
</defs>
</svg>
