<svg width="28" height="29" viewBox="0 0 28 29" fill="none" xmlns="http://www.w3.org/2000/svg">
<path d="M3.10669 2.7168H7.45136C9.28069 2.7168 10.7507 4.1868 10.7507 5.98346V10.2301H7.25536V5.98346H3.10669V2.7168ZM10.7507 10.2301H21.2367C23.164 10.2301 24.732 11.7981 24.732 13.7255V22.0881C24.732 24.0155 23.164 25.5835 21.2367 25.5835H10.7507C8.82336 25.5835 7.25536 24.0155 7.25536 22.0881V16.9595C7.25536 15.0321 8.82336 13.4641 10.7507 13.4641V10.2301ZM10.7507 22.3168H21.2367V13.4968H10.7507V22.3168Z" fill="#1B283C"/>
<path d="M3.10669 2.7168H7.45136C9.28069 2.7168 10.7507 4.1868 10.7507 5.98346V10.2301H7.25536V5.98346H3.10669V2.7168ZM10.7507 10.2301H21.2367C23.164 10.2301 24.732 11.7981 24.732 13.7255V22.0881C24.732 24.0155 23.164 25.5835 21.2367 25.5835H10.7507C8.82336 25.5835 7.25536 24.0155 7.25536 22.0881V16.9595C7.25536 15.0321 8.82336 13.4641 10.7507 13.4641V10.2301ZM10.7507 22.3168H21.2367V13.4968H10.7507V22.3168Z" fill="url(#paint0_radial_2002_2391)"/>
<path d="M16.8993 16.3794C16.6389 16.2137 16.343 16.1309 16.0116 16.1309H15.9761C15.6446 16.1309 15.3369 16.2137 15.0528 16.3794C14.7924 16.5215 14.5793 16.7345 14.4136 17.0186C14.2716 17.279 14.2006 17.5749 14.2006 17.9064C14.2006 18.2378 14.2716 18.5455 14.4136 18.8296C14.5793 19.09 14.7924 19.3031 15.0528 19.4688C15.3369 19.6108 15.6446 19.6819 15.9761 19.6819H16.0116C16.343 19.6819 16.6389 19.6108 16.8993 19.4688C17.1834 19.3031 17.3965 19.09 17.5385 18.8296C17.7042 18.5455 17.7871 18.2378 17.7871 17.9064C17.7871 17.5749 17.7042 17.279 17.5385 17.0186C17.3965 16.7345 17.1834 16.5215 16.8993 16.3794Z" fill="#1B283C"/>
<path d="M16.8993 16.3794C16.6389 16.2137 16.343 16.1309 16.0116 16.1309H15.9761C15.6446 16.1309 15.3369 16.2137 15.0528 16.3794C14.7924 16.5215 14.5793 16.7345 14.4136 17.0186C14.2716 17.279 14.2006 17.5749 14.2006 17.9064C14.2006 18.2378 14.2716 18.5455 14.4136 18.8296C14.5793 19.09 14.7924 19.3031 15.0528 19.4688C15.3369 19.6108 15.6446 19.6819 15.9761 19.6819H16.0116C16.343 19.6819 16.6389 19.6108 16.8993 19.4688C17.1834 19.3031 17.3965 19.09 17.5385 18.8296C17.7042 18.5455 17.7871 18.2378 17.7871 17.9064C17.7871 17.5749 17.7042 17.279 17.5385 17.0186C17.3965 16.7345 17.1834 16.5215 16.8993 16.3794Z" fill="url(#paint1_radial_2002_2391)"/>
<defs>
<radialGradient id="paint0_radial_2002_2391" cx="0" cy="0" r="1" gradientUnits="userSpaceOnUse" gradientTransform="translate(27.4533 14.1501) rotate(-180) scale(20.7545 24.0084)">
<stop stop-color="#8FFFEB"/>
<stop offset="0.31162" stop-color="#247AFC"/>
<stop offset="1" stop-color="#247AFC" stop-opacity="0"/>
</radialGradient>
<radialGradient id="paint1_radial_2002_2391" cx="0" cy="0" r="1" gradientUnits="userSpaceOnUse" gradientTransform="translate(16.0067 16.1309) rotate(107.522) scale(5.06846 9.49083)">
<stop stop-color="#FF4801"/>
<stop offset="0.692336" stop-color="#FFD706"/>
</radialGradient>
</defs>
</svg>
