<svg width="40" height="40" viewBox="0 0 40 40" fill="none" xmlns="http://www.w3.org/2000/svg">
<path fill-rule="evenodd" clip-rule="evenodd" d="M20 0C8.95431 0 0 8.95431 0 20C0 31.0457 8.95431 40 20 40C31.0457 40 40 31.0457 40 20C40 8.95431 31.0457 0 20 0ZM24.9946 28.2923L28 12.6022C28 11.5579 26.6131 12.1889 26.6131 12.1889L9.73908 19.0439C9.73908 19.0439 8.9401 19.3265 9.00359 19.8491C9.06626 20.3708 9.71764 20.6108 9.71764 20.6108L13.8568 22.053L24.5856 14.9974C25.1562 14.6387 25.4613 14.9214 24.9698 15.3961C24.6524 15.7027 17.3891 22.4654 16.4524 23.3364L16.4846 23.3526L23.4189 28.8584C24.5741 29.3801 24.9946 28.2923 24.9946 28.2923Z" fill="white"/>
<path fill-rule="evenodd" clip-rule="evenodd" d="M20 0C8.95431 0 0 8.95431 0 20C0 31.0457 8.95431 40 20 40C31.0457 40 40 31.0457 40 20C40 8.95431 31.0457 0 20 0ZM24.9946 28.2923L28 12.6022C28 11.5579 26.6131 12.1889 26.6131 12.1889L9.73908 19.0439C9.73908 19.0439 8.9401 19.3265 9.00359 19.8491C9.06626 20.3708 9.71764 20.6108 9.71764 20.6108L13.8568 22.053L24.5856 14.9974C25.1562 14.6387 25.4613 14.9214 24.9698 15.3961C24.6524 15.7027 17.3891 22.4654 16.4524 23.3364L16.4846 23.3526L23.4189 28.8584C24.5741 29.3801 24.9946 28.2923 24.9946 28.2923Z" fill="url(#paint0_radial_215_2326)"/>
<defs>
<radialGradient id="paint0_radial_215_2326" cx="0" cy="0" r="1" gradientUnits="userSpaceOnUse" gradientTransform="translate(45.0336 20) rotate(-180) scale(38.3893 41.9972)">
<stop stop-color="#8FFFEB"/>
<stop offset="0.31162" stop-color="#247AFC"/>
<stop offset="1" stop-color="#247AFC" stop-opacity="0"/>
</radialGradient>
</defs>
</svg>
