<svg width="110" height="50" viewBox="0 0 110 50" fill="none" xmlns="http://www.w3.org/2000/svg">
<rect width="110" height="50" fill="white" fill-opacity="0.15"/>
<path fill-rule="evenodd" clip-rule="evenodd" d="M110 25.5C110 34.0604 100.822 41 89.5 41H20.5C9.17816 41 0 34.0604 0 25.5C0 14.7304 9.17816 6 20.5 6H89.5C100.822 6 110 14.7304 110 25.5ZM20.5 5C9.17816 5 0 14.1782 0 25.5C0 36.8218 9.17816 46 20.5 46H89.5C100.822 46 110 36.8218 110 25.5C110 14.1782 100.822 5 89.5 5H20.5Z" fill="white"/>
<path d="M29.2102 23.8963H26.0891C25.2213 23.8963 24.521 23.1579 24.521 22.2781C24.521 21.3826 25.2213 20.6599 26.0891 20.6599L29.8496 20.6599C30.0171 20.6599 30.1541 20.5027 30.1541 20.3299C30.1541 20.1571 30.0171 20 29.8496 20L21.065 20C19.8622 20 18.8726 21.0212 18.8726 22.2781C18.8726 23.5192 19.8622 24.5404 21.065 24.5404H24.2013C25.7542 24.5404 27.0178 25.8444 27.0178 27.4469C27.0178 29.0495 25.7542 30.3535 24.2013 30.3535H17.3045C17.137 30.3535 17 30.5106 17 30.6834C17 30.8562 17.137 30.9976 17.3045 30.9976H29.2102C31.1133 30.9976 32.6662 29.4108 32.6662 27.4469C32.6662 25.4831 31.1133 23.8963 29.2102 23.8963Z" fill="white"/>
<path d="M46.1296 20H33.5997C33.4322 20 33.2952 20.1571 33.2952 20.3299V30.6834C33.2952 30.8562 33.4322 30.9976 33.5997 30.9976H38.6238C38.7913 30.9976 38.9283 30.8562 38.9283 30.6834V25.8444H46.1296C47.6977 25.8444 48.9614 24.5247 48.9614 22.9222C48.9614 21.3197 47.6977 20 46.1296 20ZM46.1296 25.1846H38.9283V20.6599H46.1296C47.3476 20.6599 48.3372 21.6654 48.3372 22.9222C48.3372 24.1791 47.3476 25.1846 46.1296 25.1846Z" fill="white"/>
<path d="M62.8026 30.542L57.7785 20.1885C57.7328 20.0786 57.6263 20 57.5045 20H52.4955C52.3737 20 52.2824 20.0628 52.2215 20.1571C52.2215 20.1728 52.2215 20.1728 52.2215 20.1728C52.2215 20.1885 52.2063 20.1885 52.2063 20.1885L49.7094 25.3574C49.6942 25.3574 49.6942 25.3574 49.6942 25.3731L47.1973 30.542C47.1212 30.6991 47.1821 30.8876 47.3344 30.9662C47.4866 31.0447 47.6693 30.9819 47.7607 30.8248L50.1814 25.8287H54.8097L57.2304 30.8248C57.2456 30.8876 57.2913 30.919 57.337 30.9505C57.3827 30.9819 57.4436 30.9976 57.4892 30.9976H57.5045H62.5134C62.6352 30.9976 62.7265 30.9505 62.7874 30.8562C62.8483 30.7619 62.8483 30.6363 62.8026 30.542ZM50.4859 25.1846L52.4955 21.0526L54.49 25.1846H50.4859Z" fill="white"/>
<path d="M77.6043 25.1846C77.4368 25.1846 77.2998 25.326 77.2998 25.4988C77.2998 28.1854 75.1835 30.3535 72.5953 30.3535C70.0071 30.3535 67.8909 28.1854 67.8909 25.4988C67.8909 22.828 70.0071 20.6599 72.5953 20.6599C72.7628 20.6599 72.9151 20.5027 72.9151 20.3299C72.9151 20.1571 72.7628 20 72.5953 20L67.5864 20C64.648 20 62.2578 22.4823 62.2578 25.4988C62.2578 28.531 64.648 30.9976 67.5864 30.9976H72.5953C75.5337 30.9976 77.924 28.531 77.924 25.4988C77.924 25.326 77.787 25.1846 77.6043 25.1846Z" fill="white"/>
<path d="M92.6803 30.3535L83.1648 30.3535L85.3572 25.8287H90.1834C90.3509 25.8287 90.4879 25.6873 90.4879 25.4988C90.4879 25.326 90.3509 25.1846 90.1834 25.1846H85.6769L87.8693 20.6599H90.1834C90.3509 20.6599 90.4879 20.5027 90.4879 20.3299C90.4879 20.1571 90.3509 20 90.1834 20H82.6472C82.5406 20 82.4341 20.0786 82.3732 20.1885L77.3642 30.542C77.3033 30.6363 77.3186 30.7619 77.3795 30.8562C77.4251 30.9505 77.5317 30.9976 77.6383 30.9976L92.6803 30.9976C92.863 30.9976 93 30.8562 93 30.6834C93 30.5106 92.863 30.3535 92.6803 30.3535Z" fill="white"/>
</svg>
