<svg width="101" height="37" viewBox="0 0 101 37" fill="none" xmlns="http://www.w3.org/2000/svg">
<path d="M22.5024 22.5432V10.8H29.5584V36H23.208L22.5528 31.8168C20.3352 34.8912 17.0088 36.756 13.0776 36.756C5.5176 36.756 0.2256 30.9096 0.2256 22.5432V10.8H7.2816V22.5432C7.2816 27.0792 10.4568 30.204 14.9424 30.204C19.3776 30.204 22.5024 27.0288 22.5024 22.5432ZM60.3532 36L52.5412 25.7184H42.9652V36H35.9092V0.719999H54.0532C61.6132 0.719999 67.8628 5.7096 67.8628 13.2192C67.8628 18.1584 64.6372 22.2912 60.2524 24.3576L69.1228 36H60.3532ZM60.8068 13.2192C60.8068 9.7416 57.9844 7.2216 54.0532 7.2216H42.9652V19.116H54.0532C57.934 19.116 60.8068 16.5456 60.8068 13.2192ZM93.7219 22.5432V10.8H100.778V36H94.4275L93.7723 31.8168C91.5547 34.8912 88.2283 36.756 84.2971 36.756C76.7371 36.756 71.4451 30.9096 71.4451 22.5432V10.8H78.5011V22.5432C78.5011 27.0792 81.6763 30.204 86.1619 30.204C90.5971 30.204 93.7219 27.0288 93.7219 22.5432Z" fill="black"/>
</svg>
